:SAMPLES-PER-SECOND 30
:FULLY-SPECIFIED
:DEGREES
428
root  -3.79124 40.1812 0.0018828 -21.5881 -88.3262 19.2434
RightUpLeg  -17.5546 -10.925 8.95212
RightLeg  18.0521 2.54011 0.979666
RightFoot  14.8364 -3.23091 14.6396
RightToes  7.56698e-010 0 -3.6325e-017
Spine  17.8236 -0.361716 0.172325
Spine1  0.922613 -0.872298 3.05127
HEad  -3.80601 10.0417 -3.9635
LeftShoulder1  2.38975 -8.54512 -12.7931
LeftArm  -17.074 -23.5902 -64.2071
LeftForeArm  10.1287 -36.5101 -7.54365
LeftHand  -1.75218 -0.982533 31.5037
RightShoulder  1.92527 5.02916 15.8649
RightArm  -23.4627 18.2725 59.3744
RightForeArm  2.98812 21.1812 5.1191
RightHand  -2.44293 8.55333 -20.4643
LeftUpLeg  -8.65894 -6.97663 0.246145
LeftLeg  53.4602 8.45494 12.3856
LeftFoot  15.346 -0.843353 3.27325
LeftToes  -3.13779e-010 -2.47553e-011 -5.36621e-011
429
root  -3.65505 40.9089 -0.592599 20.6279 -88.7125 -22.7629
RightUpLeg  -12.7792 -6.25234 6.80451
RightLeg  15.1347 8.74409 3.23338
RightFoot  10.5906 -4.89704 25.2231
RightToes  7.56698e-010 0 -3.6325e-017
Spine  18.1618 1.23241 3.47577
Spine1  1.80142 2.56196 -3.43145
HEad  -2.56045 2.80547 2.69509
LeftShoulder1  2.53106 -9.35333 -12.6284
LeftArm  -19.2671 -28.5892 -64.8496
LeftForeArm  3.714 -12.4636 -5.68952
LeftHand  -1.31038 0.649873 31.5086
RightShoulder  1.77746 5.21669 13.4624
RightArm  -23.7492 20.2821 59.5892
RightForeArm  7.02453 13.3271 7.12674
RightHand  -2.48101 9.03065 -20.1121
LeftUpLeg  -17.6125 -5.90907 1.02315
LeftLeg  58.1969 10.094 17.3741
LeftFoot  15.464 -1.18699 4.58955
LeftToes  -3.13779e-010 -2.47553e-011 -5.36621e-011
430
root  -3.73887 41.3919 -1.22495 19.1135 -86.6655 -21.7713
RightUpLeg  -7.62244 -1.5648 5.08779
RightLeg  17.5484 9.64518 3.18365
RightFoot  4.85613 -3.32664 23.0815
RightToes  7.56698e-010 0 -3.6325e-017
Spine  17.5432 1.66025 4.16031
Spine1  4.58475 3.69579 -5.95883
HEad  -3.30716 -1.21137 5.42729
LeftShoulder1  2.72683 -9.54378 -13.9782
LeftArm  -26.4315 -30.6254 -62.8607
LeftForeArm  0.498631 1.42652 -5.48178
LeftHand  -0.794034 2.2462 28.9995
RightShoulder  1.62561 5.26513 11.4061
RightArm  -21.0847 22.3092 60.2872
RightForeArm  5.77829 14.7342 6.79947
RightHand  -2.6863 9.98387 -20.42
LeftUpLeg  -23.8261 -7.58337 0.168953
LeftLeg  55.8612 7.29858 12.0532
LeftFoot  12.28 -0.564914 2.26516
LeftToes  -3.13779e-010 -2.47553e-011 -5.36621e-011
431
root  -4.05805 41.2925 -1.90432 14.118 -81.3366 -17.7783
RightUpLeg  -0.995582 1.52812 6.17765
RightLeg  20.576 4.06156 1.44866
RightFoot  2.99245 -1.62972 13.307
RightToes  7.56698e-010 0 -3.6325e-017
Spine  16.4667 0.856484 3.14996
Spine1  6.7097 2.18455 -3.44211
HEad  -3.95706 -2.93404 6.92367
LeftShoulder1  2.84431 -9.21789 -15.575
LeftArm  -25.8526 -27.1864 -61.2977
LeftForeArm  -3.87976 3.74372 -5.32027
LeftHand  -0.661169 2.50575 26.4346
RightShoulder  1.60432 4.88225 12.0893
RightArm  -17.7147 21.9833 59.705
RightForeArm  1.56901 26.0018 5.33127
RightHand  -2.75169 10.3078 -20.4899
LeftUpLeg  -28.1227 -11.7912 -0.265112
LeftLeg  50.1476 5.21762 7.0321
LeftFoot  11.5568 0.733629 -3.85515
LeftToes  -3.13779e-010 -2.47553e-011 -5.36621e-011
432
root  -4.63827 40.678 -2.54726 15.8936 -75.4558 -19.7632
RightUpLeg  5.79805 1.21463 9.43941
RightLeg  20.7328 -0.506974 -0.70242
RightFoot  3.14888 -0.74148 5.92956
RightToes  7.56698e-010 0 -3.6325e-017
Spine  14.4397 0.238435 1.99629
Spine1  6.85928 0.406985 0.130053
HEad  -3.5778 -4.8011 8.89536
LeftShoulder1  2.9268 -8.98346 -16.7475
LeftArm  -25.6585 -20.0899 -60.8369
LeftForeArm  -2.25877 0.395213 -6.43306
LeftHand  -0.738669 1.99272 25.0588
RightShoulder  1.69558 4.28494 15.0019
RightArm  -24.9669 17.5137 56.8361
RightForeArm  8.38397 45.3842 11.0603
RightHand  -2.37121 9.42198 -18.7312
LeftUpLeg  -30.8573 -14.1902 -0.984545
LeftLeg  43.8451 8.51041 8.9473
LeftFoot  15.1955 1.50879 -6.85553
LeftToes  -3.13779e-010 -2.47553e-011 -5.36621e-011
433
root  -5.30962 39.728 -3.04793 21.8472 -71.8712 -24.6843
RightUpLeg  10.6285 -0.833324 11.9729
RightLeg  19.1275 -0.181426 -0.954886
RightFoot  -0.596683 -0.341956 3.72218
RightToes  7.56698e-010 0 -3.6325e-017
Spine  11.0812 0.674238 2.256
Spine1  6.23059 0.421384 1.63083
HEad  -2.38575 -7.60839 11.1915
LeftShoulder1  3.0558 -9.32846 -17.1597
LeftArm  -26.1482 -12.1937 -61.5019
LeftForeArm  -3.11038 -4.39542 -7.39502
LeftHand  -0.89001 1.03459 23.6224
RightShoulder  1.73351 3.71474 17.4453
RightArm  -29.714 11.2071 53.806
RightForeArm  22.0667 67.7707 28.1706
RightHand  -1.7505 7.47971 -16.0283
LeftUpLeg  -32.0483 -12.7978 -2.03215
LeftLeg  39.6142 14.16 12.6496
LeftFoot  17.8812 1.27839 -5.3371
LeftToes  -3.13779e-010 -2.47553e-011 -5.36621e-011
434
root  -5.85352 38.4767 -3.41521 28.7081 -70.6292 -30.5558
RightUpLeg  13.3069 -2.09866 12.7805
RightLeg  18.6216 3.92622 0.877445
RightFoot  -9.56381 -0.126636 4.62386
RightToes  7.56698e-010 0 -3.6325e-017
Spine  7.61384 1.74107 2.8717
Spine1  6.44719 1.5669 1.75142
HEad  -1.72151 -10.0065 13.1841
LeftShoulder1  3.22609 -10.0278 -17.1848
LeftArm  -26.9011 -5.00471 -62.7748
LeftForeArm  -10.5344 -10.5064 -7.6252
LeftHand  -0.970701 0.225809 21.748
RightShoulder  1.65585 3.28661 17.8536
RightArm  -33.7041 7.73608 51.4183
RightForeArm  83.1162 79.4983 92.972
RightHand  -1.35183 5.38266 -14.8211
LeftUpLeg  -32.4398 -10.3742 -2.7243
LeftLeg  39.8322 16.1348 14.3
LeftFoot  13.9167 0.503824 -2.5395
LeftToes  -3.13779e-010 -2.47553e-011 -5.36621e-011
435
root  -6.2162 37.0897 -3.72424 31.5818 -70.1341 -33.9797
RightUpLeg  15.2613 -1.54955 13.9701
RightLeg  19.7189 6.76949 2.2235
RightFoot  -19.5636 0.162797 4.43807
RightToes  7.56698e-010 0 -3.6325e-017
Spine  5.90884 2.2756 2.40231
Spine1  7.93919 2.1088 2.22073
HEad  -3.13218 -10.8252 14.7256
LeftShoulder1  3.38788 -10.3791 -17.7965
LeftArm  -24.6913 -0.516845 -63.4106
LeftForeArm  -21.3346 -18.3058 -6.72538
LeftHand  -0.931799 0.334553 21.3699
RightShoulder  1.55012 3.0354 17.1243
RightArm  -37.1739 9.09471 48.9604
RightForeArm  135.529 70.7448 147.968
RightHand  -1.11586 3.34213 -15.011
LeftUpLeg  -32.2785 -9.97964 -3.10725
LeftLeg  44.0099 14.9824 15.349
LeftFoot  3.53972 -0.219249 1.7556
LeftToes  -3.13779e-010 -2.47553e-011 -5.36621e-011
436
root  -6.44775 35.9759 -3.96778 29.6529 -69.8842 -33.6945
RightUpLeg  17.0849 0.858029 16.6896
RightLeg  21.5455 2.77273 0.709808
RightFoot  -27.1383 0.0439058 1.62706
RightToes  7.56698e-010 0 -3.6325e-017
Spine  5.93246 2.01536 1.71269
Spine1  10.1854 1.96699 2.2892
HEad  -6.60554 -10.5265 15.795
LeftShoulder1  3.50963 -10.1186 -19.2687
LeftArm  -23.2037 -0.565389 -62.1866
LeftForeArm  -25.3396 -24.8178 -6.32535
LeftHand  -0.933497 0.771092 23.3276
RightShoulder  1.51878 2.95737 16.9069
RightArm  -40.1527 12.1599 46.499
RightForeArm  145.865 61.0571 160.104
RightHand  -0.89379 1.59539 -14.9506
LeftUpLeg  -31.8591 -10.2659 -3.88862
LeftLeg  48.7974 14.1236 17.0264
LeftFoot  -6.34172 -0.268067 6.46491
LeftToes  -3.13779e-010 -2.47553e-011 -5.36621e-011
